# xmcd
#
# Track frame offsets: 
#        182
#        11202
#        22987
#        35297
#        46910
#        57807
#        69395
#        83200
#        94595
#        107560
#        118580
#        130010
#        143430
#        158127
#        169510
#        182200
#        194285
#        206785
#        219872
#        231937
#
# Disc length: 3274 seconds
#
# Revision: 0
# Processed by: cddbd v1.5.2PL0 Copyright (c) Steve Scherf et al.
# Submitted via: ExactAudioCopy v0.90b3
#
DISCID=030cc814
DTITLE=Johnny 'Guitar' Watson - Gangster of Love
DYEAR=1953
DGENRE=R&B
TTITLE0=I got eyes
TTITLE1=Motorhead baby
TTITLE2=Gettin' drunk
TTITLE3=Walkin to my baby
TTITLE4=Highway 60
TTITLE5=Space guitar (alt)
TTITLE6=Sad fool
TTITLE7=What's going on
TTITLE8=Half pint of whisky
TTITLE9=No I can't
TTITLE10=Thinking
TTITLE11=Broke and lonely
TTITLE12=Cuttin' in
TTITLE13=What you do to me
TTITLE14=Those lonely, lonely nights
TTITLE15=You can't take it with you
TTITLE16=I just wants me some love
TTITLE17=Gangster of love
TTITLE18=Space guitar
TTITLE19=Sweet lovin' mama
EXTD=
EXTT0=
EXTT1=
EXTT2=
EXTT3=
EXTT4=
EXTT5=
EXTT6=
EXTT7=
EXTT8=
EXTT9=
EXTT10=
EXTT11=
EXTT12=
EXTT13=
EXTT14=
EXTT15=
EXTT16=
EXTT17=
EXTT18=
EXTT19=
PLAYORDER=
